<?xml version="1.0" encoding="utf-8"?>
<!-- Generator: Adobe Illustrator 25.4.1, SVG Export Plug-In . SVG Version: 6.00 Build 0)  -->
<svg version="1.1" id="Ebene_1" xmlns="http://www.w3.org/2000/svg" xmlns:xlink="http://www.w3.org/1999/xlink" x="0px" y="0px"
	 viewBox="0 0 174.8 48.7" style="enable-background:new 0 0 174.8 48.7;" xml:space="preserve">
<style type="text/css">
	.st0{clip-path:url(#SVGID_00000103254920119333120830000006043340333144700831_);fill:#00497B;}
	.st1{clip-path:url(#SVGID_00000046318606858150279760000016290125953087073416_);fill:#00497B;}
	.st2{clip-path:url(#SVGID_00000133498287066539821230000016987027048186632373_);fill:#00497B;}
	.st3{clip-path:url(#SVGID_00000101797575454309787060000014490184298960589238_);fill:#00497B;}
	.st4{clip-path:url(#SVGID_00000124143233927267508930000005359403409376820657_);fill:#00497B;}
	.st5{clip-path:url(#SVGID_00000145746624187127598570000015024076985714293148_);fill:#00497B;}
	.st6{clip-path:url(#SVGID_00000126295602758717018400000010597591144411033262_);fill:#00497B;}
	.st7{clip-path:url(#SVGID_00000182512386368177445710000012604005090655554233_);fill:#00497B;}
	.st8{clip-path:url(#SVGID_00000142140265791321251840000011607719955878595238_);fill:#00497B;}
	.st9{clip-path:url(#SVGID_00000054978309750436976110000010687938980399418557_);fill:#00497B;}
	.st10{clip-path:url(#SVGID_00000034080640881586763720000017095885197846652333_);fill:#00497B;}
	.st11{clip-path:url(#SVGID_00000111163457412166426870000007624922794321220785_);fill:#00497B;}
	.st12{clip-path:url(#SVGID_00000055707135379058420400000010006144867547240378_);fill:#00497B;}
	.st13{clip-path:url(#SVGID_00000169544826604400295790000014630599428234182332_);fill:#00497B;}
	.st14{clip-path:url(#SVGID_00000092415046061898628860000000848555174375256203_);fill:#00497B;}
	.st15{clip-path:url(#SVGID_00000059293470420025173960000004960141811622935463_);fill:#E30613;}
</style>
<g>
	<g>
		<defs>
			<rect id="SVGID_1_" x="-197" y="-362.9" width="595.3" height="841.9"/>
		</defs>
		<clipPath id="SVGID_00000108309968893015182170000011582053456546071940_">
			<use xlink:href="#SVGID_1_"  style="overflow:visible;"/>
		</clipPath>
		<path style="clip-path:url(#SVGID_00000108309968893015182170000011582053456546071940_);fill:#00497B;" d="M1.4,38.8
			c0-4.3,1.6-6.2,4.6-6.2c3,0,4.6,1.9,4.6,6.2C10.6,43,9.1,45,6,45C3,45,1.4,43,1.4,38.8 M3.3,38.8c0,3.5,1,4.7,2.7,4.7
			s2.7-1.2,2.7-4.7c0-3.5-1-4.7-2.7-4.7S3.3,35.2,3.3,38.8"/>
	</g>
	<g>
		<defs>
			<rect id="SVGID_00000007423100564193932340000004013853435106227078_" x="-197" y="-362.9" width="595.3" height="841.9"/>
		</defs>
		<clipPath id="SVGID_00000093142968420627355490000006230739797693862296_">
			<use xlink:href="#SVGID_00000007423100564193932340000004013853435106227078_"  style="overflow:visible;"/>
		</clipPath>
		<path style="clip-path:url(#SVGID_00000093142968420627355490000006230739797693862296_);fill:#00497B;" d="M16.6,45
			c-1.1,0-2-0.6-2.5-1.2v0.3c0,0.5-0.2,0.8-0.9,0.8h-0.8V33.2c0-0.5,0.2-0.9,0.8-0.9h0.9v4.2c0.5-0.6,1.4-1.2,2.5-1.2
			c2.3,0,3.3,1.9,3.3,4.9C20,43.1,18.9,45,16.6,45 M16.1,36.6c-0.7,0-1.4,0.3-1.9,0.8v5.4c0.5,0.5,1.2,0.8,1.9,0.8
			c1.5,0,2.1-1.2,2.1-3.5C18.2,37.9,17.6,36.6,16.1,36.6"/>
	</g>
	<g>
		<defs>
			<rect id="SVGID_00000008116351633126852430000017927267586959601579_" x="-197" y="-362.9" width="595.3" height="841.9"/>
		</defs>
		<clipPath id="SVGID_00000037684557358569779180000013671963245894239876_">
			<use xlink:href="#SVGID_00000008116351633126852430000017927267586959601579_"  style="overflow:visible;"/>
		</clipPath>
		<path style="clip-path:url(#SVGID_00000037684557358569779180000013671963245894239876_);fill:#00497B;" d="M28.4,43.6v0.4
			c0,0.7-1,0.9-3.1,0.9c-3,0-3.9-2.2-3.9-4.9s1-4.9,3.9-4.9c2.4,0,3.6,1.5,3.6,3.6c0,0.4,0,0.8-0.1,1.8h-5.6c0,2.2,0.7,3.1,2.3,3.1
			C25.5,43.6,28.4,43.6,28.4,43.6z M27.1,39.3c0-0.2,0-0.6,0-0.8c0-0.9-0.4-2.1-1.8-2.1c-1.3,0-2,0.8-2.1,2.9
			C23.2,39.3,27.1,39.3,27.1,39.3z"/>
	</g>
	<g>
		<defs>
			<rect id="SVGID_00000071517564993455306090000004725668931598187942_" x="-197" y="-362.9" width="595.3" height="841.9"/>
		</defs>
		<clipPath id="SVGID_00000061462827643842234670000014057513745468124346_">
			<use xlink:href="#SVGID_00000071517564993455306090000004725668931598187942_"  style="overflow:visible;"/>
		</clipPath>
		<path style="clip-path:url(#SVGID_00000061462827643842234670000014057513745468124346_);fill:#00497B;" d="M30.7,44.9v-9.6h0.9
			c0.6,0,0.8,0.5,0.9,1.2c0.7-1,1.7-1.3,2.5-1.3c0.3,0,0.7,0.1,0.7,0.5v1.2h-0.5c-1.4,0-2.1,0.3-2.7,0.8v7.2H30.7z"/>
	</g>
	<g>
		<defs>
			<rect id="SVGID_00000060004823834149522550000002442732576879534987_" x="-197" y="-362.9" width="595.3" height="841.9"/>
		</defs>
		<clipPath id="SVGID_00000029025230001126303650000003253999671174320293_">
			<use xlink:href="#SVGID_00000060004823834149522550000002442732576879534987_"  style="overflow:visible;"/>
		</clipPath>
		<path style="clip-path:url(#SVGID_00000029025230001126303650000003253999671174320293_);fill:#00497B;" d="M36,40.1
			c0-2.7,0.9-4.9,3.9-4.9c3,0,3.9,2.2,3.9,4.9S42.9,45,39.9,45C36.9,45,36,42.8,36,40.1 M39,34.2h-1.5v-1.1c0-0.6,0.2-0.9,0.8-0.9
			H39V34.2z M42,40.1c0-2.4-0.5-3.6-2.1-3.6c-1.6,0-2.1,1.2-2.1,3.6s0.5,3.6,2.1,3.6C41.5,43.7,42,42.5,42,40.1 M42.3,34.2h-1.5
			v-1.1c0-0.6,0.2-0.9,0.8-0.9h0.7V34.2z"/>
	</g>
	<g>
		<defs>
			<rect id="SVGID_00000160179275470801428420000003351217395345990827_" x="-197" y="-362.9" width="595.3" height="841.9"/>
		</defs>
		<clipPath id="SVGID_00000042729677399923546030000001715480956750066566_">
			<use xlink:href="#SVGID_00000160179275470801428420000003351217395345990827_"  style="overflow:visible;"/>
		</clipPath>
		<path style="clip-path:url(#SVGID_00000042729677399923546030000001715480956750066566_);fill:#00497B;" d="M48.4,35.2
			c1.7,0,2.8,0,2.8,0.9v0.5h-2.9c-0.9,0-1.4,0.4-1.4,1c0,2,4.8,1.4,4.8,4.6c0,1.6-1,2.8-3.7,2.8c-1.6,0-3,0-3-0.8v-0.5h3.2
			c1.2,0,1.7-0.4,1.7-1.3c0-1.8-4.8-1.5-4.8-4.7C45.1,36.1,46.3,35.2,48.4,35.2"/>
	</g>
	<g>
		<defs>
			<rect id="SVGID_00000129167361825416244340000004549544136156716206_" x="-197" y="-362.9" width="595.3" height="841.9"/>
		</defs>
		<clipPath id="SVGID_00000095316239911596416100000015133186719572254611_">
			<use xlink:href="#SVGID_00000129167361825416244340000004549544136156716206_"  style="overflow:visible;"/>
		</clipPath>
		<path style="clip-path:url(#SVGID_00000095316239911596416100000015133186719572254611_);fill:#00497B;" d="M55.3,35.3h2.1v1.3
			h-2.1v5.9c0,0.8,0.1,1.1,0.7,1.1h1.4V44c0,0.7-0.7,0.9-1.6,0.9c-2,0-2.1-1.1-2.1-2.5v-5.9h-1.2v-1l1.2-0.3l0.6-1.5
			c0.2-0.4,0.3-0.6,0.7-0.6h0.4C55.3,33.2,55.3,35.3,55.3,35.3z"/>
	</g>
	<g>
		<defs>
			<rect id="SVGID_00000168827531817351963360000015303953076703404956_" x="-197" y="-362.9" width="595.3" height="841.9"/>
		</defs>
		<clipPath id="SVGID_00000108994229059962265300000014319660271458482344_">
			<use xlink:href="#SVGID_00000168827531817351963360000015303953076703404956_"  style="overflow:visible;"/>
		</clipPath>
		<path style="clip-path:url(#SVGID_00000108994229059962265300000014319660271458482344_);fill:#00497B;" d="M65.2,43.6v0.4
			c0,0.7-1,0.9-3.1,0.9c-3,0-3.9-2.2-3.9-4.9s1-4.9,3.9-4.9c2.4,0,3.6,1.5,3.6,3.6c0,0.4,0,0.8-0.1,1.8h-5.6c0,2.2,0.7,3.1,2.3,3.1
			C62.2,43.6,65.2,43.6,65.2,43.6z M63.8,39.3c0-0.2,0-0.6,0-0.8c0-0.9-0.4-2.1-1.8-2.1c-1.3,0-2,0.8-2.1,2.9
			C59.9,39.3,63.8,39.3,63.8,39.3z"/>
	</g>
	<g>
		<defs>
			<rect id="SVGID_00000155126989606344351930000004437060941279165581_" x="-197" y="-362.9" width="595.3" height="841.9"/>
		</defs>
		<clipPath id="SVGID_00000164491739710990334640000002479698717508287158_">
			<use xlink:href="#SVGID_00000155126989606344351930000004437060941279165581_"  style="overflow:visible;"/>
		</clipPath>
		<path style="clip-path:url(#SVGID_00000164491739710990334640000002479698717508287158_);fill:#00497B;" d="M67.4,44.9v-9.6h0.9
			c0.6,0,0.8,0.5,0.9,1.2c0.7-1,1.7-1.3,2.5-1.3c0.3,0,0.7,0.1,0.7,0.5v1.2h-0.5c-1.4,0-2.1,0.3-2.7,0.8v7.2H67.4z"/>
	</g>
	<g>
		<defs>
			<rect id="SVGID_00000061458777933968647970000003907181916534831769_" x="-197" y="-362.9" width="595.3" height="841.9"/>
		</defs>
		<clipPath id="SVGID_00000176735047817585359420000015361746419703444383_">
			<use xlink:href="#SVGID_00000061458777933968647970000003907181916534831769_"  style="overflow:visible;"/>
		</clipPath>
		<path style="clip-path:url(#SVGID_00000176735047817585359420000015361746419703444383_);fill:#00497B;" d="M73.3,44.9v-9.6h0.9
			c0.6,0,0.8,0.5,0.9,1.2c0.7-1,1.7-1.3,2.5-1.3c0.3,0,0.7,0.1,0.7,0.5v1.2h-0.5c-1.4,0-2.1,0.3-2.7,0.8v7.2H73.3z"/>
	</g>
	<g>
		<defs>
			<rect id="SVGID_00000150102502178886346510000001378555361375533705_" x="-197" y="-362.9" width="595.3" height="841.9"/>
		</defs>
		<clipPath id="SVGID_00000038391306044705016630000008937988221338176406_">
			<use xlink:href="#SVGID_00000150102502178886346510000001378555361375533705_"  style="overflow:visible;"/>
		</clipPath>
		<path style="clip-path:url(#SVGID_00000038391306044705016630000008937988221338176406_);fill:#00497B;" d="M85.6,43.6v0.4
			c0,0.7-1,0.9-3.1,0.9c-3,0-3.9-2.2-3.9-4.9s1-4.9,3.9-4.9c2.4,0,3.6,1.5,3.6,3.6c0,0.4,0,0.8-0.1,1.8h-5.6c0,2.2,0.7,3.1,2.3,3.1
			C82.7,43.6,85.6,43.6,85.6,43.6z M84.3,39.3c0-0.2,0-0.6,0-0.8c0-0.9-0.4-2.1-1.8-2.1c-1.3,0-2,0.8-2.1,2.9
			C80.4,39.3,84.3,39.3,84.3,39.3z"/>
	</g>
	<g>
		<defs>
			<rect id="SVGID_00000071554216903135905120000011880339324298929032_" x="-197" y="-362.9" width="595.3" height="841.9"/>
		</defs>
		<clipPath id="SVGID_00000039125345441997659050000010458983001029288107_">
			<use xlink:href="#SVGID_00000071554216903135905120000011880339324298929032_"  style="overflow:visible;"/>
		</clipPath>
		<path style="clip-path:url(#SVGID_00000039125345441997659050000010458983001029288107_);fill:#00497B;" d="M89.6,34.2h-1.7v-1.1
			c0-0.6,0.2-0.9,0.8-0.9h0.9C89.6,32.2,89.6,34.2,89.6,34.2z M87.8,35.3h0.9c0.6,0,0.8,0.3,0.8,0.9v8.7h-1.7V35.3z"/>
	</g>
	<g>
		<defs>
			<rect id="SVGID_00000008121864225567355480000013529621995853986447_" x="-197" y="-362.9" width="595.3" height="841.9"/>
		</defs>
		<clipPath id="SVGID_00000183960397325656566120000014346418324842556303_">
			<use xlink:href="#SVGID_00000008121864225567355480000013529621995853986447_"  style="overflow:visible;"/>
		</clipPath>
		<path style="clip-path:url(#SVGID_00000183960397325656566120000014346418324842556303_);fill:#00497B;" d="M95.3,35.2
			c2,0,2.8,0.2,2.8,0.9v0.5h-2.6c-1.6,0-2.3,0.9-2.3,3.5c0,2.6,0.7,3.5,2.3,3.5h2.6v0.4c0,0.7-0.8,0.9-2.8,0.9
			c-3.1,0-3.9-2.2-3.9-4.9C91.4,37.4,92.2,35.2,95.3,35.2"/>
	</g>
	<g>
		<defs>
			<rect id="SVGID_00000091734072572821491040000006868603784162755007_" x="-197" y="-362.9" width="595.3" height="841.9"/>
		</defs>
		<clipPath id="SVGID_00000183928911532455560360000004207880166427267732_">
			<use xlink:href="#SVGID_00000091734072572821491040000006868603784162755007_"  style="overflow:visible;"/>
		</clipPath>
		<path style="clip-path:url(#SVGID_00000183928911532455560360000004207880166427267732_);fill:#00497B;" d="M101.3,36.4
			c0.8-0.9,1.8-1.2,2.7-1.2c1.9,0,2.8,1.2,2.8,2.9v6.8h-1.7v-6.7c0-1.1-0.7-1.6-1.8-1.6c-0.7,0-1.5,0.3-2,0.8v7.5h-1.7V33.2
			c0-0.6,0.2-0.9,0.8-0.9h0.9L101.3,36.4L101.3,36.4z"/>
	</g>
	<g>
		<defs>
			<rect id="SVGID_00000114069991716818709890000007659603053895948732_" x="-197" y="-362.9" width="595.3" height="841.9"/>
		</defs>
		<clipPath id="SVGID_00000021800106483863145880000012192374904309004200_">
			<use xlink:href="#SVGID_00000114069991716818709890000007659603053895948732_"  style="overflow:visible;"/>
		</clipPath>
		<path style="clip-path:url(#SVGID_00000021800106483863145880000012192374904309004200_);fill:#00497B;" d="M8,8.5
			c4.1,0,6.2,0.5,6.2,2.4v1.9H8.6c-1.5,0-1.9,0.4-1.9,1.2c0,2.4,8.5,1.9,8.5,8.5c0,3.1-1.8,5.9-7.3,5.9c-3.6,0-6.4-0.6-6.4-2.4v-1.9
			H8c1.3,0,2-0.4,2-1.4c0-2.6-8.5-2.1-8.5-8.9C1.5,10.8,3.5,8.5,8,8.5 M17.2,10.4c0-1.2,0.5-1.7,1.7-1.7h6.4c4.5,0,7.1,2,7.1,6
			c0,3.9-2.6,5.7-7.1,5.7h-3.1v7.9h-4.9V10.4z M22.1,12.8v3.5h2.8c1.6,0,2.6-0.3,2.6-1.8c0-1.4-0.9-1.7-2.6-1.7H22.1z M42.1,8.6
			c0.8,0,1.2,0.1,1.4,0.8l4.6,18.1c0.1,0.3,0.1,0.5,0.1,0.8h-4c-0.8,0-1.1-0.1-1.2-0.7L42,23.5h-4.6l-0.9,3.9
			c-0.2,0.7-0.4,0.7-1.2,0.7h-4c0-0.2,0-0.5,0.1-0.8L36,9.4c0.2-0.7,0.6-0.8,1.4-0.8H42.1z M38.2,19.9h3l-1.5-6.3h-0.1L38.2,19.9z
			 M49.9,10.4c0-1.2,0.5-1.7,1.7-1.7h6.4c4.5,0,7,2,7,5.9c0,2.7-1,4.4-3.4,5.3l3.8,7.5c0.1,0.3,0.3,0.5,0.3,0.9h-4.2
			c-0.9,0-1.3,0-1.7-0.9l-3.4-7.1h-1.5v7.9h-4.9V10.4z M54.8,12.8v3.5h2.8c1.4,0,2.5-0.2,2.5-1.7c0-1.5-1.1-1.8-2.5-1.8H54.8z
			 M72,17.6l4.9-8.1c0.5-0.8,0.7-0.9,1.4-0.9h4.6c0,0.3-0.1,0.6-0.2,0.9L77,18.1l5.9,9.3c0.2,0.2,0.3,0.5,0.3,0.9h-4.4
			c-0.9,0-1.2-0.1-1.7-0.9l-5-8v8.9h-4.9V10.4c0-1.2,0.5-1.7,1.7-1.7H72V17.6z M95,8.6c0.8,0,1.2,0.1,1.4,0.8l4.6,18.1
			c0.1,0.3,0.1,0.5,0.1,0.8h-4c-0.8,0-1.1-0.1-1.2-0.7l-0.9-3.9h-4.6l-0.9,3.9c-0.2,0.7-0.4,0.7-1.2,0.7h-4c0-0.2,0-0.5,0.1-0.8
			l4.6-18.1c0.2-0.7,0.6-0.8,1.4-0.8H95z M91.1,19.9h3l-1.5-6.3h-0.1L91.1,19.9z M108.7,8.5c4.1,0,6.2,0.5,6.2,2.4v1.9h-5.6
			c-1.5,0-1.9,0.4-1.9,1.2c0,2.4,8.5,1.9,8.5,8.5c0,3.1-1.8,5.9-7.3,5.9c-3.6,0-6.4-0.6-6.4-2.4v-1.9h6.6c1.3,0,2-0.4,2-1.4
			c0-2.6-8.5-2.1-8.5-8.9C102.2,10.8,104.2,8.5,108.7,8.5 M123.9,8.5c4.1,0,6.2,0.5,6.2,2.4v1.9h-5.6c-1.5,0-1.9,0.4-1.9,1.2
			c0,2.4,8.5,1.9,8.5,8.5c0,3.1-1.8,5.9-7.3,5.9c-3.6,0-6.4-0.6-6.4-2.4v-1.9h6.6c1.3,0,2-0.4,2-1.4c0-2.6-8.5-2.1-8.5-8.9
			C117.4,10.8,119.4,8.5,123.9,8.5 M133,10.4c0-1.2,0.5-1.7,1.7-1.7h10.7V11c0,1.2-0.6,1.7-1.7,1.7h-5.7v3.5h6.4v4h-6.4v3.8h7.6v2.4
			c0,1.2-0.6,1.7-1.7,1.7h-9.1c-1.2,0-1.7-0.6-1.7-1.7L133,10.4L133,10.4z M8,8.5c4.1,0,6.2,0.5,6.2,2.4v1.9H8.6
			c-1.5,0-1.9,0.4-1.9,1.2c0,2.4,8.5,1.9,8.5,8.5c0,3.1-1.8,5.9-7.3,5.9c-3.6,0-6.4-0.6-6.4-2.4v-1.9H8c1.3,0,2-0.4,2-1.4
			c0-2.6-8.5-2.1-8.5-8.9C1.5,10.8,3.5,8.5,8,8.5 M17.2,10.4c0-1.2,0.5-1.7,1.7-1.7h6.4c4.5,0,7.1,2,7.1,6c0,3.9-2.6,5.7-7.1,5.7
			h-3.1v7.9h-4.9V10.4z M22.1,12.8v3.5h2.8c1.6,0,2.6-0.3,2.6-1.8c0-1.4-0.9-1.7-2.6-1.7H22.1z M42.1,8.6c0.8,0,1.2,0.1,1.4,0.8
			l4.6,18.1c0.1,0.3,0.1,0.5,0.1,0.8h-4c-0.8,0-1.1-0.1-1.2-0.7L42,23.5h-4.6l-0.9,3.9c-0.2,0.7-0.4,0.7-1.2,0.7h-4
			c0-0.2,0-0.5,0.1-0.8L36,9.4c0.2-0.7,0.6-0.8,1.4-0.8H42.1z M38.2,19.9h3l-1.5-6.3h-0.1L38.2,19.9z M49.9,10.4
			c0-1.2,0.5-1.7,1.7-1.7h6.4c4.5,0,7,2,7,5.9c0,2.7-1,4.4-3.4,5.3l3.8,7.5c0.1,0.3,0.3,0.5,0.3,0.9h-4.2c-0.9,0-1.3,0-1.7-0.9
			l-3.4-7.1h-1.5v7.9h-4.9V10.4z M54.8,12.8v3.5h2.8c1.4,0,2.5-0.2,2.5-1.7c0-1.5-1.1-1.8-2.5-1.8H54.8z M72,17.6l4.9-8.1
			c0.5-0.8,0.7-0.9,1.4-0.9h4.6c0,0.3-0.1,0.6-0.2,0.9L77,18.1l5.9,9.3c0.2,0.2,0.3,0.5,0.3,0.9h-4.4c-0.9,0-1.2-0.1-1.7-0.9l-5-8
			v8.9h-4.9V10.4c0-1.2,0.5-1.7,1.7-1.7H72C72,8.6,72,17.6,72,17.6z M95,8.6c0.8,0,1.2,0.1,1.4,0.8l4.6,18.1
			c0.1,0.3,0.1,0.5,0.1,0.8h-4c-0.8,0-1.1-0.1-1.2-0.7l-0.9-3.9h-4.6l-0.9,3.9c-0.2,0.7-0.4,0.7-1.2,0.7h-4c0-0.2,0-0.5,0.1-0.8
			l4.6-18.1c0.2-0.7,0.6-0.8,1.4-0.8H95z M91.1,19.9h3l-1.5-6.3h-0.1L91.1,19.9z M108.6,28.3c-3.6,0-6.4-0.6-6.4-2.4v-1.9h6.6
			c1.3,0,2-0.4,2-1.4c0-2.6-8.5-2.1-8.5-8.9c0-3,2-5.3,6.5-5.3c4.1,0,6.2,0.5,6.2,2.4v1.9h-5.6c-1.5,0-1.9,0.4-1.9,1.2
			c0,2.4,8.5,1.9,8.5,8.5 M123.9,8.5c4.1,0,6.2,0.5,6.2,2.4v1.9h-5.6c-1.5,0-1.9,0.4-1.9,1.2c0,2.4,8.5,1.9,8.5,8.5
			c0,3.1-1.8,5.9-7.3,5.9c-3.6,0-6.4-0.6-6.4-2.4v-1.9h6.6c1.3,0,2-0.4,2-1.4c0-2.6-8.5-2.1-8.5-8.9C117.4,10.8,119.4,8.5,123.9,8.5
			 M133,10.4c0-1.2,0.5-1.7,1.7-1.7h10.7V11c0,1.2-0.6,1.7-1.7,1.7h-5.7v3.5h6.4v4h-6.4v3.8h7.6v2.4c0,1.2-0.6,1.7-1.7,1.7h-9.1
			c-1.2,0-1.7-0.6-1.7-1.7L133,10.4L133,10.4z"/>
	</g>
	<g>
		<defs>
			<rect id="SVGID_00000113332007881132343140000006276900679732711332_" x="-197" y="-362.9" width="595.3" height="841.9"/>
		</defs>
		<clipPath id="SVGID_00000139288192393506419070000005065316771866404763_">
			<use xlink:href="#SVGID_00000113332007881132343140000006276900679732711332_"  style="overflow:visible;"/>
		</clipPath>
		<path style="clip-path:url(#SVGID_00000139288192393506419070000005065316771866404763_);fill:#E30613;" d="M162.8,0
			c1,0,1.8,0.4,2.5,1.1c0.7,0.7,1.1,1.6,1.1,2.6c0,1-0.4,1.9-1.1,2.6c-0.7,0.7-1.6,1.1-2.6,1.1c-1,0-1.9-0.4-2.6-1.1
			c-0.7-0.7-1.1-1.6-1.1-2.6c0-1,0.4-1.9,1.1-2.6C160.9,0.4,161.8,0,162.8,0 M174.8,14.6v-2.2c0-2.1-1.7-3.8-3.8-3.8h-16.3
			c-2.1,0-3.8,1.7-3.8,3.8v8.4H169v1.3h-18.2v2.2c0,2.1,1.7,3.8,3.8,3.8h16.3c2.1,0,3.8-1.7,3.8-3.8v-8.4h-18.2v-1.3
			C156.6,14.6,174.8,14.6,174.8,14.6z"/>
	</g>
</g>
</svg>
