{
    "asset" : {
        "generator" : "Khronos glTF Blender I/O v1.6.16",
        "version" : "2.0"
    },
    "scene" : 0,
    "scenes" : [
        {
            "name" : "Scene",
            "nodes" : [
                0
            ]
        }
    ],
    "nodes" : [
        {
            "mesh" : 0,
            "name" : "DTR9E6NZBST66K2M7D7LGWTMS",
            "rotation" : [
                0.7071068286895752,
                0,
                0,
                0.7071067094802856
            ]
        }
    ],
    "materials" : [
        {
            "doubleSided" : true,
            "emissiveFactor" : [
                0.07286567240953445,
                0.07286567240953445,
                0.07286567240953445
            ],
            "name" : "mat_0-APPLE.jpg",
            "pbrMetallicRoughness" : {
                "baseColorTexture" : {
                    "index" : 0
                },
                "metallicFactor" : 0
            }
        }
    ],
    "meshes" : [
        {
            "name" : "DTR9E6NZBST66K2M7D7LGWTMS",
            "primitives" : [
                {
                    "attributes" : {
                        "POSITION" : 0,
                        "NORMAL" : 1,
                        "TEXCOORD_0" : 2
                    },
                    "indices" : 3,
                    "material" : 0
                }
            ]
        }
    ],
    "textures" : [
        {
            "sampler" : 0,
            "source" : 0
        }
    ],
    "images" : [
        {
            "bufferView" : 4,
            "mimeType" : "image/jpeg",
            "name" : "APPLE"
        }
    ],
    "accessors" : [
        {
            "bufferView" : 0,
            "componentType" : 5126,
            "count" : 2338,
            "max" : [
                -0.09843926131725311,
                -0.1000480055809021,
                -0.10727595537900925
            ],
            "min" : [
                -0.17292313277721405,
                -0.17538858950138092,
                -0.18043148517608643
            ],
            "type" : "VEC3"
        },
        {
            "bufferView" : 1,
            "componentType" : 5126,
            "count" : 2338,
            "type" : "VEC3"
        },
        {
            "bufferView" : 2,
            "componentType" : 5126,
            "count" : 2338,
            "type" : "VEC2"
        },
        {
            "bufferView" : 3,
            "componentType" : 5123,
            "count" : 10620,
            "type" : "SCALAR"
        }
    ],
    "bufferViews" : [
        {
            "buffer" : 0,
            "byteLength" : 28056,
            "byteOffset" : 0
        },
        {
            "buffer" : 0,
            "byteLength" : 28056,
            "byteOffset" : 28056
        },
        {
            "buffer" : 0,
            "byteLength" : 18704,
            "byteOffset" : 56112
        },
        {
            "buffer" : 0,
            "byteLength" : 21240,
            "byteOffset" : 74816
        },
        {
            "buffer" : 0,
            "byteLength" : 377006,
            "byteOffset" : 96056
        }
    ],
    "samplers" : [
        {
            "magFilter" : 9729,
            "minFilter" : 9987
        }
    ],
    "buffers" : [
        {
            "byteLength" : 473064,
            "uri" : "data:application/octet-stream;base64,"
        }
    ]
}
