{
    "asset" : {
        "generator" : "Khronos glTF Blender I/O v1.6.16",
        "version" : "2.0"
    },
    "scene" : 0,
    "scenes" : [
        {
            "name" : "Scene",
            "nodes" : [
                0,
                1,
                2,
                3,
                4,
                5,
                6,
                7,
                8
            ]
        }
    ],
    "nodes" : [
        {
            "mesh" : 0,
            "name" : "000_Box_2.001"
        },
        {
            "mesh" : 1,
            "name" : "001_Cube.001"
        },
        {
            "mesh" : 2,
            "name" : "002_Cube.001"
        },
        {
            "mesh" : 3,
            "name" : "003_Cube.001"
        },
        {
            "mesh" : 4,
            "name" : "004_Cube.001"
        },
        {
            "mesh" : 5,
            "name" : "002_Circle.001"
        },
        {
            "mesh" : 6,
            "name" : "003_Circle.002"
        },
        {
            "mesh" : 7,
            "name" : "004_Circle.004"
        },
        {
            "mesh" : 8,
            "name" : "005_Circle.003"
        }
    ],
    "materials" : [
        {
            "doubleSided" : true,
            "name" : "Material 1_2a0ab14e-c886-4ab7-8ab7-96d147ec9b02.001",
            "pbrMetallicRoughness" : {
                "baseColorTexture" : {
                    "index" : 0
                },
                "metallicFactor" : 0
            }
        },
        {
            "doubleSided" : true,
            "name" : "Material 3_34d23679-17f2-4e9b-b914-db06864ae7ec.001",
            "pbrMetallicRoughness" : {
                "baseColorTexture" : {
                    "index" : 1
                },
                "metallicFactor" : 0
            }
        },
        {
            "doubleSided" : true,
            "name" : "Material_6e9943e3-9edc-454d-9147-e477f279e5bc.001",
            "pbrMetallicRoughness" : {
                "baseColorTexture" : {
                    "index" : 2
                },
                "metallicFactor" : 0
            }
        },
        {
            "doubleSided" : true,
            "name" : "Material 2_978e372f-b14e-496c-ae8c-a145f9593778.001",
            "pbrMetallicRoughness" : {
                "baseColorTexture" : {
                    "index" : 3
                },
                "metallicFactor" : 0
            }
        },
        {
            "doubleSided" : true,
            "name" : "Material.002_59903bab-33aa-4b4f-865d-ec8ef372469b",
            "pbrMetallicRoughness" : {
                "baseColorFactor" : [
                    0.1850000023841858,
                    0.1850000023841858,
                    0.1850000023841858,
                    1
                ],
                "metallicFactor" : 0
            }
        },
        {
            "doubleSided" : true,
            "name" : "Material.0020_ce0ebb52-2388-46c4-bf87-100e2e7fad9a",
            "pbrMetallicRoughness" : {
                "baseColorFactor" : [
                    0.1850000023841858,
                    0.1850000023841858,
                    0.1850000023841858,
                    1
                ],
                "metallicFactor" : 0
            }
        },
        {
            "doubleSided" : true,
            "name" : "Material.0021_bce2c0ba-c935-4a6f-b8cb-abc29cc53544",
            "pbrMetallicRoughness" : {
                "baseColorFactor" : [
                    0.1850000023841858,
                    0.1850000023841858,
                    0.1850000023841858,
                    1
                ],
                "metallicFactor" : 0
            }
        },
        {
            "doubleSided" : true,
            "name" : "Material.0022_f5ef450c-51e8-466a-b25a-68bf650f1b97",
            "pbrMetallicRoughness" : {
                "baseColorFactor" : [
                    0.1850000023841858,
                    0.1850000023841858,
                    0.1850000023841858,
                    1
                ],
                "metallicFactor" : 0
            }
        }
    ],
    "meshes" : [
        {
            "name" : "000_Box_2.001",
            "primitives" : [
                {
                    "attributes" : {
                        "POSITION" : 0,
                        "NORMAL" : 1,
                        "TEXCOORD_0" : 2
                    },
                    "indices" : 3,
                    "material" : 0
                }
            ]
        },
        {
            "name" : "001_Cube.001",
            "primitives" : [
                {
                    "attributes" : {
                        "POSITION" : 4,
                        "NORMAL" : 5,
                        "TEXCOORD_0" : 6
                    },
                    "indices" : 7,
                    "material" : 1
                }
            ]
        },
        {
            "name" : "002_Cube.001",
            "primitives" : [
                {
                    "attributes" : {
                        "POSITION" : 8,
                        "NORMAL" : 9,
                        "TEXCOORD_0" : 10
                    },
                    "indices" : 11,
                    "material" : 2
                }
            ]
        },
        {
            "name" : "003_Cube.001",
            "primitives" : [
                {
                    "attributes" : {
                        "POSITION" : 12,
                        "NORMAL" : 13,
                        "TEXCOORD_0" : 14
                    },
                    "indices" : 15,
                    "material" : 3
                }
            ]
        },
        {
            "name" : "004_Cube.001",
            "primitives" : [
                {
                    "attributes" : {
                        "POSITION" : 16,
                        "NORMAL" : 17,
                        "TEXCOORD_0" : 18
                    },
                    "indices" : 19,
                    "material" : 2
                }
            ]
        },
        {
            "name" : "002_Circle.001",
            "primitives" : [
                {
                    "attributes" : {
                        "POSITION" : 20,
                        "NORMAL" : 21,
                        "TEXCOORD_0" : 22
                    },
                    "indices" : 23,
                    "material" : 4
                }
            ]
        },
        {
            "name" : "003_Circle.002",
            "primitives" : [
                {
                    "attributes" : {
                        "POSITION" : 24,
                        "NORMAL" : 25,
                        "TEXCOORD_0" : 26
                    },
                    "indices" : 23,
                    "material" : 5
                }
            ]
        },
        {
            "name" : "004_Circle.004",
            "primitives" : [
                {
                    "attributes" : {
                        "POSITION" : 27,
                        "NORMAL" : 28,
                        "TEXCOORD_0" : 29
                    },
                    "indices" : 23,
                    "material" : 6
                }
            ]
        },
        {
            "name" : "005_Circle.003",
            "primitives" : [
                {
                    "attributes" : {
                        "POSITION" : 30,
                        "NORMAL" : 31,
                        "TEXCOORD_0" : 32
                    },
                    "indices" : 23,
                    "material" : 7
                }
            ]
        }
    ],
    "textures" : [
        {
            "sampler" : 0,
            "source" : 0
        },
        {
            "sampler" : 0,
            "source" : 0
        },
        {
            "sampler" : 0,
            "source" : 0
        },
        {
            "sampler" : 0,
            "source" : 0
        }
    ],
    "images" : [
        {
            "bufferView" : 4,
            "mimeType" : "image/jpeg",
            "name" : "Gltf_Import"
        }
    ],
    "accessors" : [
        {
            "bufferView" : 0,
            "componentType" : 5126,
            "count" : 596,
            "max" : [
                0.1999974250793457,
                0.09125274419784546,
                0.2056451141834259
            ],
            "min" : [
                -0.1999974250793457,
                0.06125307083129883,
                -0.1943497210741043
            ],
            "type" : "VEC3"
        },
        {
            "bufferView" : 1,
            "componentType" : 5126,
            "count" : 596,
            "type" : "VEC3"
        },
        {
            "bufferView" : 2,
            "componentType" : 5126,
            "count" : 596,
            "type" : "VEC2"
        },
        {
            "bufferView" : 3,
            "componentType" : 5123,
            "count" : 2916,
            "type" : "SCALAR"
        },
        {
            "bufferView" : 5,
            "componentType" : 5126,
            "count" : 2645,
            "max" : [
                -0.19109754264354706,
                0.46546095609664917,
                0.1999962329864502
            ],
            "min" : [
                -0.20109741389751434,
                0.0654660165309906,
                -0.1999986618757248
            ],
            "type" : "VEC3"
        },
        {
            "bufferView" : 6,
            "componentType" : 5126,
            "count" : 2645,
            "type" : "VEC3"
        },
        {
            "bufferView" : 7,
            "componentType" : 5126,
            "count" : 2645,
            "type" : "VEC2"
        },
        {
            "bufferView" : 8,
            "componentType" : 5123,
            "count" : 5091,
            "type" : "SCALAR"
        },
        {
            "bufferView" : 9,
            "componentType" : 5126,
            "count" : 2645,
            "max" : [
                0.20111042261123657,
                0.46546095609664917,
                0.20052069425582886
            ],
            "min" : [
                0.1911105513572693,
                0.0654660165309906,
                -0.19947421550750732
            ],
            "type" : "VEC3"
        },
        {
            "bufferView" : 10,
            "componentType" : 5126,
            "count" : 2645,
            "type" : "VEC3"
        },
        {
            "bufferView" : 11,
            "componentType" : 5126,
            "count" : 2645,
            "type" : "VEC2"
        },
        {
            "bufferView" : 12,
            "componentType" : 5123,
            "count" : 5091,
            "type" : "SCALAR"
        },
        {
            "bufferView" : 13,
            "componentType" : 5126,
            "count" : 2642,
            "max" : [
                0.2012174129486084,
                0.46249890327453613,
                0.2006571888923645
            ],
            "min" : [
                -0.19880343973636627,
                0.06250405311584473,
                0.19065725803375244
            ],
            "type" : "VEC3"
        },
        {
            "bufferView" : 14,
            "componentType" : 5126,
            "count" : 2642,
            "type" : "VEC3"
        },
        {
            "bufferView" : 15,
            "componentType" : 5126,
            "count" : 2642,
            "type" : "VEC2"
        },
        {
            "bufferView" : 16,
            "componentType" : 5123,
            "count" : 5091,
            "type" : "SCALAR"
        },
        {
            "bufferView" : 17,
            "componentType" : 5126,
            "count" : 2644,
            "max" : [
                0.2012174129486084,
                0.4624989628791809,
                -0.18959224224090576
            ],
            "min" : [
                -0.19880343973636627,
                0.0625041201710701,
                -0.19959217309951782
            ],
            "type" : "VEC3"
        },
        {
            "bufferView" : 18,
            "componentType" : 5126,
            "count" : 2644,
            "type" : "VEC3"
        },
        {
            "bufferView" : 19,
            "componentType" : 5126,
            "count" : 2644,
            "type" : "VEC2"
        },
        {
            "bufferView" : 20,
            "componentType" : 5123,
            "count" : 5091,
            "type" : "SCALAR"
        },
        {
            "bufferView" : 21,
            "componentType" : 5126,
            "count" : 408,
            "max" : [
                -0.14825376868247986,
                0.06438809633255005,
                0.1892881691455841
            ],
            "min" : [
                -0.18949295580387115,
                0.0015930794179439545,
                0.167607381939888
            ],
            "type" : "VEC3"
        },
        {
            "bufferView" : 22,
            "componentType" : 5126,
            "count" : 408,
            "type" : "VEC3"
        },
        {
            "bufferView" : 23,
            "componentType" : 5126,
            "count" : 408,
            "type" : "VEC2"
        },
        {
            "bufferView" : 24,
            "componentType" : 5123,
            "count" : 780,
            "type" : "SCALAR"
        },
        {
            "bufferView" : 25,
            "componentType" : 5126,
            "count" : 408,
            "max" : [
                0.18740838766098022,
                0.06438809633255005,
                0.1892881691455841
            ],
            "min" : [
                0.14616918563842773,
                0.0015930794179439545,
                0.167607381939888
            ],
            "type" : "VEC3"
        },
        {
            "bufferView" : 26,
            "componentType" : 5126,
            "count" : 408,
            "type" : "VEC3"
        },
        {
            "bufferView" : 27,
            "componentType" : 5126,
            "count" : 408,
            "type" : "VEC2"
        },
        {
            "bufferView" : 28,
            "componentType" : 5126,
            "count" : 408,
            "max" : [
                -0.14825376868247986,
                0.06438814848661423,
                -0.16618017852306366
            ],
            "min" : [
                -0.18949295580387115,
                0.0015931372763589025,
                -0.18786202371120453
            ],
            "type" : "VEC3"
        },
        {
            "bufferView" : 29,
            "componentType" : 5126,
            "count" : 408,
            "type" : "VEC3"
        },
        {
            "bufferView" : 30,
            "componentType" : 5126,
            "count" : 408,
            "type" : "VEC2"
        },
        {
            "bufferView" : 31,
            "componentType" : 5126,
            "count" : 408,
            "max" : [
                0.18740838766098022,
                0.06438814848661423,
                -0.16618017852306366
            ],
            "min" : [
                0.14616918563842773,
                0.0015931372763589025,
                -0.18786202371120453
            ],
            "type" : "VEC3"
        },
        {
            "bufferView" : 32,
            "componentType" : 5126,
            "count" : 408,
            "type" : "VEC3"
        },
        {
            "bufferView" : 33,
            "componentType" : 5126,
            "count" : 408,
            "type" : "VEC2"
        }
    ],
    "bufferViews" : [
        {
            "buffer" : 0,
            "byteLength" : 7152,
            "byteOffset" : 0
        },
        {
            "buffer" : 0,
            "byteLength" : 7152,
            "byteOffset" : 7152
        },
        {
            "buffer" : 0,
            "byteLength" : 4768,
            "byteOffset" : 14304
        },
        {
            "buffer" : 0,
            "byteLength" : 5832,
            "byteOffset" : 19072
        },
        {
            "buffer" : 0,
            "byteLength" : 617520,
            "byteOffset" : 24904
        },
        {
            "buffer" : 0,
            "byteLength" : 31740,
            "byteOffset" : 642424
        },
        {
            "buffer" : 0,
            "byteLength" : 31740,
            "byteOffset" : 674164
        },
        {
            "buffer" : 0,
            "byteLength" : 21160,
            "byteOffset" : 705904
        },
        {
            "buffer" : 0,
            "byteLength" : 10182,
            "byteOffset" : 727064
        },
        {
            "buffer" : 0,
            "byteLength" : 31740,
            "byteOffset" : 737248
        },
        {
            "buffer" : 0,
            "byteLength" : 31740,
            "byteOffset" : 768988
        },
        {
            "buffer" : 0,
            "byteLength" : 21160,
            "byteOffset" : 800728
        },
        {
            "buffer" : 0,
            "byteLength" : 10182,
            "byteOffset" : 821888
        },
        {
            "buffer" : 0,
            "byteLength" : 31704,
            "byteOffset" : 832072
        },
        {
            "buffer" : 0,
            "byteLength" : 31704,
            "byteOffset" : 863776
        },
        {
            "buffer" : 0,
            "byteLength" : 21136,
            "byteOffset" : 895480
        },
        {
            "buffer" : 0,
            "byteLength" : 10182,
            "byteOffset" : 916616
        },
        {
            "buffer" : 0,
            "byteLength" : 31728,
            "byteOffset" : 926800
        },
        {
            "buffer" : 0,
            "byteLength" : 31728,
            "byteOffset" : 958528
        },
        {
            "buffer" : 0,
            "byteLength" : 21152,
            "byteOffset" : 990256
        },
        {
            "buffer" : 0,
            "byteLength" : 10182,
            "byteOffset" : 1011408
        },
        {
            "buffer" : 0,
            "byteLength" : 4896,
            "byteOffset" : 1021592
        },
        {
            "buffer" : 0,
            "byteLength" : 4896,
            "byteOffset" : 1026488
        },
        {
            "buffer" : 0,
            "byteLength" : 3264,
            "byteOffset" : 1031384
        },
        {
            "buffer" : 0,
            "byteLength" : 1560,
            "byteOffset" : 1034648
        },
        {
            "buffer" : 0,
            "byteLength" : 4896,
            "byteOffset" : 1036208
        },
        {
            "buffer" : 0,
            "byteLength" : 4896,
            "byteOffset" : 1041104
        },
        {
            "buffer" : 0,
            "byteLength" : 3264,
            "byteOffset" : 1046000
        },
        {
            "buffer" : 0,
            "byteLength" : 4896,
            "byteOffset" : 1049264
        },
        {
            "buffer" : 0,
            "byteLength" : 4896,
            "byteOffset" : 1054160
        },
        {
            "buffer" : 0,
            "byteLength" : 3264,
            "byteOffset" : 1059056
        },
        {
            "buffer" : 0,
            "byteLength" : 4896,
            "byteOffset" : 1062320
        },
        {
            "buffer" : 0,
            "byteLength" : 4896,
            "byteOffset" : 1067216
        },
        {
            "buffer" : 0,
            "byteLength" : 3264,
            "byteOffset" : 1072112
        }
    ],
    "samplers" : [
        {
            "magFilter" : 9729,
            "minFilter" : 9987
        }
    ],
    "buffers" : [
        {
            "byteLength" : 1075376,
            "uri" : "data:application/octet-stream;base64,"
        }
    ]
}
