{
    "asset" : {
        "generator" : "Khronos glTF Blender I/O v1.6.16",
        "version" : "2.0"
    },
    "scene" : 0,
    "scenes" : [
        {
            "name" : "Scene",
            "nodes" : [
                0,
                1,
                2,
                3,
                4
            ]
        }
    ],
    "nodes" : [
        {
            "mesh" : 0,
            "name" : "000_Box_2.001"
        },
        {
            "mesh" : 1,
            "name" : "001_Cube.001"
        },
        {
            "mesh" : 2,
            "name" : "002_Cube.001"
        },
        {
            "mesh" : 3,
            "name" : "003_Cube.001"
        },
        {
            "mesh" : 4,
            "name" : "004_Cube.001"
        }
    ],
    "materials" : [
        {
            "doubleSided" : true,
            "name" : "Material 1_2a0ab14e-c886-4ab7-8ab7-96d147ec9b02.001",
            "pbrMetallicRoughness" : {
                "baseColorTexture" : {
                    "index" : 0
                },
                "metallicFactor" : 0
            }
        },
        {
            "doubleSided" : true,
            "name" : "Material 3_34d23679-17f2-4e9b-b914-db06864ae7ec.001",
            "pbrMetallicRoughness" : {
                "baseColorTexture" : {
                    "index" : 1
                },
                "metallicFactor" : 0
            }
        },
        {
            "doubleSided" : true,
            "name" : "Material_6e9943e3-9edc-454d-9147-e477f279e5bc.001",
            "pbrMetallicRoughness" : {
                "baseColorTexture" : {
                    "index" : 2
                },
                "metallicFactor" : 0
            }
        },
        {
            "doubleSided" : true,
            "name" : "Material 2_978e372f-b14e-496c-ae8c-a145f9593778.001",
            "pbrMetallicRoughness" : {
                "baseColorTexture" : {
                    "index" : 3
                },
                "metallicFactor" : 0
            }
        }
    ],
    "meshes" : [
        {
            "name" : "000_Box_2.001",
            "primitives" : [
                {
                    "attributes" : {
                        "POSITION" : 0,
                        "NORMAL" : 1,
                        "TEXCOORD_0" : 2
                    },
                    "indices" : 3,
                    "material" : 0
                }
            ]
        },
        {
            "name" : "001_Cube.001",
            "primitives" : [
                {
                    "attributes" : {
                        "POSITION" : 4,
                        "NORMAL" : 5,
                        "TEXCOORD_0" : 6
                    },
                    "indices" : 7,
                    "material" : 1
                }
            ]
        },
        {
            "name" : "002_Cube.001",
            "primitives" : [
                {
                    "attributes" : {
                        "POSITION" : 8,
                        "NORMAL" : 9,
                        "TEXCOORD_0" : 10
                    },
                    "indices" : 11,
                    "material" : 2
                }
            ]
        },
        {
            "name" : "003_Cube.001",
            "primitives" : [
                {
                    "attributes" : {
                        "POSITION" : 12,
                        "NORMAL" : 13,
                        "TEXCOORD_0" : 14
                    },
                    "indices" : 15,
                    "material" : 3
                }
            ]
        },
        {
            "name" : "004_Cube.001",
            "primitives" : [
                {
                    "attributes" : {
                        "POSITION" : 16,
                        "NORMAL" : 17,
                        "TEXCOORD_0" : 18
                    },
                    "indices" : 19,
                    "material" : 2
                }
            ]
        }
    ],
    "textures" : [
        {
            "sampler" : 0,
            "source" : 0
        },
        {
            "sampler" : 0,
            "source" : 0
        },
        {
            "sampler" : 0,
            "source" : 0
        },
        {
            "sampler" : 0,
            "source" : 0
        }
    ],
    "images" : [
        {
            "bufferView" : 4,
            "mimeType" : "image/jpeg",
            "name" : "Gltf_Import"
        }
    ],
    "accessors" : [
        {
            "bufferView" : 0,
            "componentType" : 5126,
            "count" : 596,
            "max" : [
                0.1999974250793457,
                0.09377875924110413,
                0.2056451141834259
            ],
            "min" : [
                -0.1999974250793457,
                0.0637790858745575,
                -0.1943497210741043
            ],
            "type" : "VEC3"
        },
        {
            "bufferView" : 1,
            "componentType" : 5126,
            "count" : 596,
            "type" : "VEC3"
        },
        {
            "bufferView" : 2,
            "componentType" : 5126,
            "count" : 596,
            "type" : "VEC2"
        },
        {
            "bufferView" : 3,
            "componentType" : 5123,
            "count" : 2916,
            "type" : "SCALAR"
        },
        {
            "bufferView" : 5,
            "componentType" : 5126,
            "count" : 2645,
            "max" : [
                -0.19109754264354706,
                0.46798697113990784,
                0.1999962329864502
            ],
            "min" : [
                -0.20109741389751434,
                0.06799203157424927,
                -0.1999986618757248
            ],
            "type" : "VEC3"
        },
        {
            "bufferView" : 6,
            "componentType" : 5126,
            "count" : 2645,
            "type" : "VEC3"
        },
        {
            "bufferView" : 7,
            "componentType" : 5126,
            "count" : 2645,
            "type" : "VEC2"
        },
        {
            "bufferView" : 8,
            "componentType" : 5123,
            "count" : 5091,
            "type" : "SCALAR"
        },
        {
            "bufferView" : 9,
            "componentType" : 5126,
            "count" : 2644,
            "max" : [
                0.20111042261123657,
                0.46798697113990784,
                0.20052069425582886
            ],
            "min" : [
                0.1911105513572693,
                0.06799203157424927,
                -0.19947421550750732
            ],
            "type" : "VEC3"
        },
        {
            "bufferView" : 10,
            "componentType" : 5126,
            "count" : 2644,
            "type" : "VEC3"
        },
        {
            "bufferView" : 11,
            "componentType" : 5126,
            "count" : 2644,
            "type" : "VEC2"
        },
        {
            "bufferView" : 12,
            "componentType" : 5123,
            "count" : 5091,
            "type" : "SCALAR"
        },
        {
            "bufferView" : 13,
            "componentType" : 5126,
            "count" : 2642,
            "max" : [
                0.2012174129486084,
                0.4650249183177948,
                0.2006571888923645
            ],
            "min" : [
                -0.19880343973636627,
                0.0650300681591034,
                0.19065725803375244
            ],
            "type" : "VEC3"
        },
        {
            "bufferView" : 14,
            "componentType" : 5126,
            "count" : 2642,
            "type" : "VEC3"
        },
        {
            "bufferView" : 15,
            "componentType" : 5126,
            "count" : 2642,
            "type" : "VEC2"
        },
        {
            "bufferView" : 16,
            "componentType" : 5123,
            "count" : 5091,
            "type" : "SCALAR"
        },
        {
            "bufferView" : 17,
            "componentType" : 5126,
            "count" : 2644,
            "max" : [
                0.2012174129486084,
                0.4650249779224396,
                -0.18959224224090576
            ],
            "min" : [
                -0.19880343973636627,
                0.06503013521432877,
                -0.19959217309951782
            ],
            "type" : "VEC3"
        },
        {
            "bufferView" : 18,
            "componentType" : 5126,
            "count" : 2644,
            "type" : "VEC3"
        },
        {
            "bufferView" : 19,
            "componentType" : 5126,
            "count" : 2644,
            "type" : "VEC2"
        },
        {
            "bufferView" : 20,
            "componentType" : 5123,
            "count" : 5091,
            "type" : "SCALAR"
        }
    ],
    "bufferViews" : [
        {
            "buffer" : 0,
            "byteLength" : 7152,
            "byteOffset" : 0
        },
        {
            "buffer" : 0,
            "byteLength" : 7152,
            "byteOffset" : 7152
        },
        {
            "buffer" : 0,
            "byteLength" : 4768,
            "byteOffset" : 14304
        },
        {
            "buffer" : 0,
            "byteLength" : 5832,
            "byteOffset" : 19072
        },
        {
            "buffer" : 0,
            "byteLength" : 616207,
            "byteOffset" : 24904
        },
        {
            "buffer" : 0,
            "byteLength" : 31740,
            "byteOffset" : 641112
        },
        {
            "buffer" : 0,
            "byteLength" : 31740,
            "byteOffset" : 672852
        },
        {
            "buffer" : 0,
            "byteLength" : 21160,
            "byteOffset" : 704592
        },
        {
            "buffer" : 0,
            "byteLength" : 10182,
            "byteOffset" : 725752
        },
        {
            "buffer" : 0,
            "byteLength" : 31728,
            "byteOffset" : 735936
        },
        {
            "buffer" : 0,
            "byteLength" : 31728,
            "byteOffset" : 767664
        },
        {
            "buffer" : 0,
            "byteLength" : 21152,
            "byteOffset" : 799392
        },
        {
            "buffer" : 0,
            "byteLength" : 10182,
            "byteOffset" : 820544
        },
        {
            "buffer" : 0,
            "byteLength" : 31704,
            "byteOffset" : 830728
        },
        {
            "buffer" : 0,
            "byteLength" : 31704,
            "byteOffset" : 862432
        },
        {
            "buffer" : 0,
            "byteLength" : 21136,
            "byteOffset" : 894136
        },
        {
            "buffer" : 0,
            "byteLength" : 10182,
            "byteOffset" : 915272
        },
        {
            "buffer" : 0,
            "byteLength" : 31728,
            "byteOffset" : 925456
        },
        {
            "buffer" : 0,
            "byteLength" : 31728,
            "byteOffset" : 957184
        },
        {
            "buffer" : 0,
            "byteLength" : 21152,
            "byteOffset" : 988912
        },
        {
            "buffer" : 0,
            "byteLength" : 10182,
            "byteOffset" : 1010064
        }
    ],
    "samplers" : [
        {
            "magFilter" : 9729,
            "minFilter" : 9987
        }
    ],
    "buffers" : [
        {
            "byteLength" : 1020248,
            "uri" : "data:application/octet-stream;base64,"
        }
    ]
}
