{
    "asset" : {
        "generator" : "Khronos glTF Blender I/O v1.6.16",
        "version" : "2.0"
    },
    "scene" : 0,
    "scenes" : [
        {
            "name" : "Scene",
            "nodes" : [
                0
            ]
        }
    ],
    "nodes" : [
        {
            "mesh" : 0,
            "name" : "Cube"
        }
    ],
    "materials" : [
        {
            "doubleSided" : true,
            "name" : "Material.007",
            "pbrMetallicRoughness" : {
                "baseColorFactor" : [
                    0.8000000715255737,
                    0.0007361153839156032,
                    0,
                    1
                ],
                "metallicFactor" : 0
            }
        }
    ],
    "meshes" : [
        {
            "name" : "Cube",
            "primitives" : [
                {
                    "attributes" : {
                        "POSITION" : 0,
                        "NORMAL" : 1,
                        "TEXCOORD_0" : 2
                    },
                    "indices" : 3,
                    "material" : 0
                }
            ]
        }
    ],
    "accessors" : [
        {
            "bufferView" : 0,
            "componentType" : 5126,
            "count" : 423,
            "max" : [
                0.43207651376724243,
                0.9885690212249756,
                -0.16902261972427368
            ],
            "min" : [
                0.32181429862976074,
                0.8783068060874939,
                -0.18251875042915344
            ],
            "type" : "VEC3"
        },
        {
            "bufferView" : 1,
            "componentType" : 5126,
            "count" : 423,
            "type" : "VEC3"
        },
        {
            "bufferView" : 2,
            "componentType" : 5126,
            "count" : 423,
            "type" : "VEC2"
        },
        {
            "bufferView" : 3,
            "componentType" : 5123,
            "count" : 864,
            "type" : "SCALAR"
        }
    ],
    "bufferViews" : [
        {
            "buffer" : 0,
            "byteLength" : 5076,
            "byteOffset" : 0
        },
        {
            "buffer" : 0,
            "byteLength" : 5076,
            "byteOffset" : 5076
        },
        {
            "buffer" : 0,
            "byteLength" : 3384,
            "byteOffset" : 10152
        },
        {
            "buffer" : 0,
            "byteLength" : 1728,
            "byteOffset" : 13536
        }
    ],
    "buffers" : [
        {
            "byteLength" : 15264,
            "uri" : "data:application/octet-stream;base64,"
        }
    ]
}
