{
    "asset" : {
        "generator" : "Khronos glTF Blender I/O v1.6.16",
        "version" : "2.0"
    },
    "scene" : 0,
    "scenes" : [
        {
            "name" : "Scene",
            "nodes" : [
                0,
                1
            ]
        }
    ],
    "nodes" : [
        {
            "mesh" : 0,
            "name" : "Cube.001",
            "translation" : [
                -0.32237568497657776,
                0,
                0
            ]
        },
        {
            "mesh" : 1,
            "name" : "Cube.002",
            "translation" : [
                0.0018963813781738281,
                0,
                0
            ]
        }
    ],
    "materials" : [
        {
            "doubleSided" : true,
            "name" : "Material",
            "pbrMetallicRoughness" : {
                "baseColorTexture" : {
                    "index" : 0
                },
                "metallicFactor" : 0
            }
        },
        {
            "doubleSided" : true,
            "name" : "Material.005",
            "pbrMetallicRoughness" : {
                "baseColorTexture" : {
                    "index" : 1
                },
                "metallicFactor" : 0
            }
        }
    ],
    "meshes" : [
        {
            "name" : "Cube.001",
            "primitives" : [
                {
                    "attributes" : {
                        "POSITION" : 0,
                        "NORMAL" : 1,
                        "TEXCOORD_0" : 2
                    },
                    "indices" : 3,
                    "material" : 0
                }
            ]
        },
        {
            "name" : "Cube.002",
            "primitives" : [
                {
                    "attributes" : {
                        "POSITION" : 4,
                        "NORMAL" : 5,
                        "TEXCOORD_0" : 6
                    },
                    "indices" : 3,
                    "material" : 1
                }
            ]
        }
    ],
    "textures" : [
        {
            "sampler" : 0,
            "source" : 0
        },
        {
            "sampler" : 0,
            "source" : 1
        }
    ],
    "images" : [
        {
            "bufferView" : 4,
            "mimeType" : "image/jpeg",
            "name" : "info_image_4"
        },
        {
            "bufferView" : 8,
            "mimeType" : "image/png",
            "name" : "info_text_4"
        }
    ],
    "accessors" : [
        {
            "bufferView" : 0,
            "componentType" : 5126,
            "count" : 3450,
            "max" : [
                0.2993627190589905,
                0.9358624815940857,
                -0.17209646105766296
            ],
            "min" : [
                0.023013019934296608,
                0.7018851637840271,
                -0.17651042342185974
            ],
            "type" : "VEC3"
        },
        {
            "bufferView" : 1,
            "componentType" : 5126,
            "count" : 3450,
            "type" : "VEC3"
        },
        {
            "bufferView" : 2,
            "componentType" : 5126,
            "count" : 3450,
            "type" : "VEC2"
        },
        {
            "bufferView" : 3,
            "componentType" : 5123,
            "count" : 5184,
            "type" : "SCALAR"
        },
        {
            "bufferView" : 5,
            "componentType" : 5126,
            "count" : 3450,
            "max" : [
                0.2993627190589905,
                0.9358624815940857,
                -0.17209646105766296
            ],
            "min" : [
                0.023013019934296608,
                0.7018851637840271,
                -0.17651042342185974
            ],
            "type" : "VEC3"
        },
        {
            "bufferView" : 6,
            "componentType" : 5126,
            "count" : 3450,
            "type" : "VEC3"
        },
        {
            "bufferView" : 7,
            "componentType" : 5126,
            "count" : 3450,
            "type" : "VEC2"
        }
    ],
    "bufferViews" : [
        {
            "buffer" : 0,
            "byteLength" : 41400,
            "byteOffset" : 0
        },
        {
            "buffer" : 0,
            "byteLength" : 41400,
            "byteOffset" : 41400
        },
        {
            "buffer" : 0,
            "byteLength" : 27600,
            "byteOffset" : 82800
        },
        {
            "buffer" : 0,
            "byteLength" : 10368,
            "byteOffset" : 110400
        },
        {
            "buffer" : 0,
            "byteLength" : 1424865,
            "byteOffset" : 120768
        },
        {
            "buffer" : 0,
            "byteLength" : 41400,
            "byteOffset" : 1545636
        },
        {
            "buffer" : 0,
            "byteLength" : 41400,
            "byteOffset" : 1587036
        },
        {
            "buffer" : 0,
            "byteLength" : 27600,
            "byteOffset" : 1628436
        },
        {
            "buffer" : 0,
            "byteLength" : 218812,
            "byteOffset" : 1656036
        }
    ],
    "samplers" : [
        {
            "magFilter" : 9729,
            "minFilter" : 9987
        }
    ],
    "buffers" : [
        {
            "byteLength" : 1874848,
            "uri" : "data:application/octet-stream;base64,"
        }
    ]
}
